<svg width="290" height="145" viewBox="0 0 290 145" fill="none" xmlns="http://www.w3.org/2000/svg">
<path d="M9.98031 130.056V10.6904C9.98031 10.3767 9.85745 10.0754 9.63806 9.85119L1.99508 2.0392C1.25185 1.27953 1.79007 0 2.85284 0H25.3963H65.9321C66.5949 0 67.1321 0.537257 67.1321 1.2V10.201V42.4053L96.1657 7.51582L102.331 0.413372C102.559 0.150804 102.889 0 103.237 0H146.067H151.328C152.572 0 152.994 1.6601 151.901 2.25429L141.516 7.89944C141.376 7.97576 141.252 8.07936 141.152 8.20415L95.2584 65.5779L147.241 81.1444C148.012 81.3753 148.342 82.2848 147.897 82.956L133.365 104.925L125.079 117.322C124.509 118.174 123.202 117.965 122.926 116.978L119.926 106.262C119.819 105.881 119.532 105.577 119.158 105.45L67.1321 87.7071V130.427V143.8C67.1321 144.463 66.5949 145 65.9321 145H25.3963H2.27627C1.31103 145 0.740796 143.918 1.2862 143.122L9.77038 130.734C9.90713 130.534 9.98031 130.298 9.98031 130.056Z" fill="#C4C4C4"/>
<path d="M121.021 61.9727L136.292 41.5327L147.26 28.4428C147.951 27.6176 149.296 28.0501 149.376 29.1237L150.158 39.5401C150.197 40.0633 150.572 40.5003 151.083 40.6191L183.88 48.2435C184.373 48.3581 184.885 48.1512 185.159 47.7262L207.062 13.8442L214.875 1.2944C215.094 0.942538 215.479 0.728638 215.894 0.728638H257.87H286.47C287.616 0.728638 288.11 2.18154 287.201 2.88L271.629 14.8516C271.502 14.9492 271.396 15.0713 271.317 15.2106L205.996 130.285C205.787 130.654 205.788 131.106 205.999 131.474L211.887 141.746C212.346 142.546 211.768 143.543 210.846 143.543H179.843H152.624H134.683C133.773 143.543 133.194 142.568 133.629 141.769L139.014 131.884L170.862 78.6001C171.27 77.9163 170.911 77.0313 170.142 76.8253L121.672 63.8501C120.852 63.6306 120.513 62.6526 121.021 61.9727Z" fill="#C4C4C4"/>
</svg>
