<svg width="1166" height="314" viewBox="0 0 1166 314" fill="none" xmlns="http://www.w3.org/2000/svg">
<path d="M114 135.4C115.4 135.4 117.1 135.1 119.1 134.5C121.3 133.9 122.4 132.5 122.4 130.3C122.4 129.7 121.7 128.3 120.3 126.1C118.9 123.7 117.1 120.9 114.9 117.7C112.9 114.5 110.6 111 108 107.2C105.4 103.2 102.9 99.5 100.5 96.1C98.1 92.5 95.9 89.3 93.9 86.5C92.1 83.7 90.8 81.6 90 80.2L63.9 105.4V130C63.9 132.2 64.8 133.6 66.6 134.2C68.4 134.8 70.3 135.2 72.3 135.4V139H16.2V135.4C18 135.6 19.7 135.3 21.3 134.5C22.9 133.7 23.7 132.2 23.7 130V16C23.7 13.8 22.9 12.3 21.3 11.5C19.7 10.7 18 10.4 16.2 10.6V6.99999H72.3V10.6C70.3 10.8 68.4 11.2 66.6 11.8C64.8 12.4 63.9 13.8 63.9 16V71.2C66.9 68.6 70.4 65.5 74.4 61.9C78.6 58.3 82.9 54.6 87.3 50.8C91.9 46.8 96.4 42.9 100.8 39.1C105.2 35.3 109.1 31.8 112.5 28.6C116.1 25.2 118.9 22.4 120.9 20.2C123.1 18 124.2 16.6 124.2 16C124.2 13.8 123.3 12.4 121.5 11.8C119.9 11.2 118.3 10.8 116.7 10.6V6.99999H175.2V10.6C172.2 11 168.3 13.1 163.5 16.9C158.7 20.7 153.6 25.1 148.2 30.1C142.8 34.9 137.4 39.9 132 45.1C126.8 50.1 122.3 54.1 118.5 57.1L168.3 130.9C169.3 132.5 170.3 133.6 171.3 134.2C172.5 134.8 173.8 135.2 175.2 135.4V139H114V135.4ZM335.498 112.6C339.498 112.6 342.098 110.1 343.298 105.1H346.898V144.4H343.898C342.898 141.6 341.798 140 340.598 139.6C339.598 139.2 337.898 139 335.498 139H201.698V135.4C203.898 135.2 205.798 134.8 207.398 134.2C209.198 133.6 210.098 132.2 210.098 130V16C210.098 13.8 209.198 12.4 207.398 11.8C205.798 11.2 203.898 10.8 201.698 10.6V6.99999H337.898C339.098 6.99999 340.298 6.59999 341.498 5.79999C342.698 4.99999 343.298 3.2 343.298 0.399996H346.898V40.6H343.298C343.298 37.6 342.698 35.7 341.498 34.9C340.298 33.9 339.098 33.4 337.898 33.4H250.298V57.7H306.698C307.898 57.7 309.098 57.3 310.298 56.5C311.498 55.5 312.098 53.6 312.098 50.8H315.698V89.8H312.098C312.098 87 311.498 85.2 310.298 84.4C309.098 83.4 307.898 82.9 306.698 82.9H250.298V112.6H335.498ZM540.497 130C540.497 132.2 541.297 133.6 542.897 134.2C544.497 134.8 546.497 135.2 548.897 135.4V139H493.397V135.4C494.997 135.4 496.797 135.2 498.797 134.8C500.997 134.4 502.097 133.3 502.097 131.5C502.097 129.7 499.897 126.4 495.497 121.6C491.097 116.6 485.397 110.5 478.397 103.3C471.597 96.1 463.897 88.1 455.297 79.3C446.697 70.3 438.197 60.8 429.797 50.8L429.197 51.4V130C429.197 132.2 429.897 133.6 431.297 134.2C432.897 134.8 434.797 135.2 436.997 135.4V139H385.697V135.4C387.697 135.2 389.397 134.8 390.797 134.2C392.397 133.6 393.197 132.2 393.197 130V16C393.197 13.8 392.397 12.4 390.797 11.8C389.197 11.2 387.297 10.8 385.097 10.6V6.99999H456.497V10.6C455.097 10.8 453.697 11.2 452.297 11.8C450.897 12.4 450.197 13.8 450.197 16C450.197 16.4 451.797 18.5 454.997 22.3C458.397 25.9 462.697 30.5 467.897 36.1C473.097 41.7 478.897 47.9 485.297 54.7C491.697 61.5 498.097 68.3 504.497 75.1V16C504.497 13.8 503.697 12.4 502.097 11.8C500.497 11.2 498.497 10.8 496.097 10.6V6.99999H548.897V10.6C546.497 10.8 544.497 11.2 542.897 11.8C541.297 12.4 540.497 13.8 540.497 16V130ZM740.595 130C740.595 132.2 741.395 133.6 742.995 134.2C744.595 134.8 746.595 135.2 748.995 135.4V139H693.495V135.4C695.095 135.4 696.895 135.2 698.895 134.8C701.095 134.4 702.195 133.3 702.195 131.5C702.195 129.7 699.995 126.4 695.595 121.6C691.195 116.6 685.495 110.5 678.495 103.3C671.695 96.1 663.995 88.1 655.395 79.3C646.795 70.3 638.295 60.8 629.895 50.8L629.295 51.4V130C629.295 132.2 629.995 133.6 631.395 134.2C632.995 134.8 634.895 135.2 637.095 135.4V139H585.795V135.4C587.795 135.2 589.495 134.8 590.895 134.2C592.495 133.6 593.295 132.2 593.295 130V16C593.295 13.8 592.495 12.4 590.895 11.8C589.295 11.2 587.395 10.8 585.195 10.6V6.99999H656.595V10.6C655.195 10.8 653.795 11.2 652.395 11.8C650.995 12.4 650.295 13.8 650.295 16C650.295 16.4 651.895 18.5 655.095 22.3C658.495 25.9 662.795 30.5 667.995 36.1C673.195 41.7 678.995 47.9 685.395 54.7C691.795 61.5 698.195 68.3 704.595 75.1V16C704.595 13.8 703.795 12.4 702.195 11.8C700.595 11.2 698.595 10.8 696.195 10.6V6.99999H748.995V10.6C746.595 10.8 744.595 11.2 742.995 11.8C741.395 12.4 740.595 13.8 740.595 16V130ZM880.092 130C880.092 132.2 880.792 133.6 882.192 134.2C883.592 134.8 884.992 135.2 886.392 135.4V139H833.592V135.4C834.992 135.2 836.392 134.8 837.792 134.2C839.192 133.6 839.892 132.2 839.892 130V91.3L782.592 13.6C781.792 12.4 780.392 11.6 778.392 11.2C776.592 10.8 775.092 10.6 773.892 10.6V6.99999H838.392V10.6C837.192 10.6 835.692 10.8 833.892 11.2C832.292 11.4 831.492 12.3 831.492 13.9C831.492 14.9 832.392 16.8 834.192 19.6C836.192 22.2 838.592 25.4 841.392 29.2C844.192 33 847.292 37.1 850.692 41.5C854.092 45.7 857.292 49.8 860.292 53.8C861.092 52.2 862.892 49.4 865.692 45.4C868.492 41.4 871.392 37.2 874.392 32.8C877.592 28.4 880.392 24.4 882.792 20.8C885.192 17.2 886.392 14.9 886.392 13.9C886.392 12.3 885.592 11.4 883.992 11.2C882.392 10.8 881.092 10.6 880.092 10.6V6.99999H939.492V10.6C938.492 10.6 937.092 10.8 935.292 11.2C933.492 11.6 932.192 12.4 931.392 13.6L880.092 90.1V130Z" fill="#E4E4E4"/>
<path d="M322.1 299C322.1 301.2 322.8 302.6 324.2 303.2C325.6 303.8 327 304.2 328.4 304.4V308H275.6V304.4C277 304.2 278.4 303.8 279.8 303.2C281.2 302.6 281.9 301.2 281.9 299V260.3L224.6 182.6C223.8 181.4 222.4 180.6 220.4 180.2C218.6 179.8 217.1 179.6 215.9 179.6V176H280.4V179.6C279.2 179.6 277.7 179.8 275.9 180.2C274.3 180.4 273.5 181.3 273.5 182.9C273.5 183.9 274.4 185.8 276.2 188.6C278.2 191.2 280.6 194.4 283.4 198.2C286.2 202 289.3 206.1 292.7 210.5C296.1 214.7 299.3 218.8 302.3 222.8C303.1 221.2 304.9 218.4 307.7 214.4C310.5 210.4 313.4 206.2 316.4 201.8C319.6 197.4 322.4 193.4 324.8 189.8C327.2 186.2 328.4 183.9 328.4 182.9C328.4 181.3 327.6 180.4 326 180.2C324.4 179.8 323.1 179.6 322.1 179.6V176H381.5V179.6C380.5 179.6 379.1 179.8 377.3 180.2C375.5 180.6 374.2 181.4 373.4 182.6L322.1 259.1V299ZM528.598 304.4C529.198 304.4 529.998 304.3 530.998 304.1C531.998 303.9 532.498 303.1 532.498 301.7C532.498 300.9 532.098 299.7 531.298 298.1C530.698 296.3 529.898 294.4 528.898 292.4C528.098 290.4 527.198 288.4 526.198 286.4C525.198 284.4 524.398 282.7 523.798 281.3H454.198C453.798 282.7 453.098 284.4 452.098 286.4C451.298 288.4 450.398 290.4 449.398 292.4C448.398 294.4 447.498 296.3 446.698 298.1C445.898 299.7 445.498 300.9 445.498 301.7C445.498 303.1 445.998 303.9 446.998 304.1C447.998 304.3 448.798 304.4 449.398 304.4V308H404.398V304.4C405.598 304.4 406.798 304.2 407.998 303.8C409.198 303.2 409.998 302.4 410.398 301.4C416.398 287.4 422.498 273.6 428.698 260C434.898 246.2 440.398 233.8 445.198 222.8C450.198 211.6 454.298 202.4 457.498 195.2C460.698 187.8 462.298 183.6 462.298 182.6C462.298 180.8 460.998 179.8 458.398 179.6V176H521.098V179.6C518.498 179.8 517.198 180.8 517.198 182.6C517.198 183.2 518.198 185.9 520.198 190.7C522.398 195.3 525.198 201.2 528.598 208.4C531.998 215.4 535.698 223.2 539.698 231.8C543.898 240.4 547.998 249 551.998 257.6C556.198 266.2 560.098 274.4 563.698 282.2C567.298 289.8 570.198 296.2 572.398 301.4C572.798 302.4 573.598 303.2 574.798 303.8C575.998 304.2 577.198 304.4 578.398 304.4V308H528.598V304.4ZM488.398 207.2L463.798 259.7H513.598L488.398 207.2ZM766.196 299C766.196 301.2 766.996 302.6 768.596 303.2C770.196 303.8 772.196 304.2 774.596 304.4V308H719.096V304.4C720.696 304.4 722.496 304.2 724.496 303.8C726.696 303.4 727.796 302.3 727.796 300.5C727.796 298.7 725.596 295.4 721.196 290.6C716.796 285.6 711.096 279.5 704.096 272.3C697.296 265.1 689.596 257.1 680.996 248.3C672.396 239.3 663.896 229.8 655.496 219.8L654.896 220.4V299C654.896 301.2 655.596 302.6 656.996 303.2C658.596 303.8 660.496 304.2 662.696 304.4V308H611.396V304.4C613.396 304.2 615.096 303.8 616.496 303.2C618.096 302.6 618.896 301.2 618.896 299V185C618.896 182.8 618.096 181.4 616.496 180.8C614.896 180.2 612.996 179.8 610.796 179.6V176H682.196V179.6C680.796 179.8 679.396 180.2 677.996 180.8C676.596 181.4 675.896 182.8 675.896 185C675.896 185.4 677.496 187.5 680.696 191.3C684.096 194.9 688.396 199.5 693.596 205.1C698.796 210.7 704.596 216.9 710.996 223.7C717.396 230.5 723.796 237.3 730.196 244.1V185C730.196 182.8 729.396 181.4 727.796 180.8C726.196 180.2 724.196 179.8 721.796 179.6V176H774.596V179.6C772.196 179.8 770.196 180.2 768.596 180.8C766.996 181.4 766.196 182.8 766.196 185V299ZM906.594 304.4C907.994 304.4 909.694 304.1 911.694 303.5C913.894 302.9 914.994 301.5 914.994 299.3C914.994 298.7 914.294 297.3 912.894 295.1C911.494 292.7 909.694 289.9 907.494 286.7C905.494 283.5 903.194 280 900.594 276.2C897.994 272.2 895.494 268.5 893.094 265.1C890.694 261.5 888.494 258.3 886.494 255.5C884.694 252.7 883.394 250.6 882.594 249.2L856.494 274.4V299C856.494 301.2 857.394 302.6 859.194 303.2C860.994 303.8 862.894 304.2 864.894 304.4V308H808.794V304.4C810.594 304.6 812.294 304.3 813.894 303.5C815.494 302.7 816.294 301.2 816.294 299V185C816.294 182.8 815.494 181.3 813.894 180.5C812.294 179.7 810.594 179.4 808.794 179.6V176H864.894V179.6C862.894 179.8 860.994 180.2 859.194 180.8C857.394 181.4 856.494 182.8 856.494 185V240.2C859.494 237.6 862.994 234.5 866.994 230.9C871.194 227.3 875.494 223.6 879.894 219.8C884.494 215.8 888.994 211.9 893.394 208.1C897.794 204.3 901.694 200.8 905.094 197.6C908.694 194.2 911.494 191.4 913.494 189.2C915.694 187 916.794 185.6 916.794 185C916.794 182.8 915.894 181.4 914.094 180.8C912.494 180.2 910.894 179.8 909.294 179.6V176H967.794V179.6C964.794 180 960.894 182.1 956.094 185.9C951.294 189.7 946.194 194.1 940.794 199.1C935.394 203.9 929.994 208.9 924.594 214.1C919.394 219.1 914.894 223.1 911.094 226.1L960.894 299.9C961.894 301.5 962.894 302.6 963.894 303.2C965.094 303.8 966.394 304.2 967.794 304.4V308H906.594V304.4ZM1002.99 206.6C1001.19 206.6 999.792 207 998.792 207.8C997.992 208.4 997.592 210.3 997.592 213.5H993.992V169.1H997.592C997.592 172.3 997.992 174.3 998.792 175.1C999.792 175.7 1001.19 176 1002.99 176H1123.59V179.6L1054.29 277.4H1118.79C1120.59 277.4 1121.89 277 1122.69 276.2C1123.69 275.4 1124.19 273.2 1124.19 269.6H1127.79V314H1124.19C1124.19 310.8 1123.69 309 1122.69 308.6C1121.89 308.2 1120.59 308 1118.79 308H990.992V304.4L1060.89 206.6H1002.99Z" fill="#E4E4E4"/>
<circle cx="140" cy="246" r="26" fill="#D9D9D9"/>
<circle cx="1009" cy="77" r="26" fill="#D9D9D9"/>
</svg>
